<svg width="1600" height="600" viewBox="0 0 1600 600" fill="none" xmlns="http://www.w3.org/2000/svg" xmlns:xlink="http://www.w3.org/1999/xlink" role="img" aria-labelledby="title desc">
  <title id="title">Nia, the running UI is the canvas</title>
  <desc id="desc">A warm light Nia product banner with the Nia logo, an agent panel, live browser canvas, source inspector, and Rust, Tauri, React, and Chromium stack marks.</desc>
  <defs>
    <linearGradient id="bg" x1="0" y1="0" x2="1600" y2="600" gradientUnits="userSpaceOnUse">
      <stop stop-color="#F4F2EC"/>
      <stop offset="0.55" stop-color="#ECEBE6"/>
      <stop offset="1" stop-color="#E6E2D8"/>
    </linearGradient>
    <linearGradient id="amber" x1="0" y1="0" x2="1" y2="1">
      <stop stop-color="#E0A11A"/>
      <stop offset="1" stop-color="#A86F00"/>
    </linearGradient>
    <linearGradient id="canvasBg" x1="0" y1="0" x2="1" y2="1">
      <stop stop-color="#FFFDF8"/>
      <stop offset="1" stop-color="#F2F1EC"/>
    </linearGradient>
    <radialGradient id="glow" cx="0" cy="0" r="1" gradientUnits="userSpaceOnUse" gradientTransform="translate(1435 65) rotate(140) scale(390 330)">
      <stop stop-color="#C88900" stop-opacity=".16"/>
      <stop offset=".62" stop-color="#C88900" stop-opacity=".035"/>
      <stop offset="1" stop-color="#C88900" stop-opacity="0"/>
    </radialGradient>
    <filter id="shadow" x="-20%" y="-20%" width="140%" height="160%">
      <feDropShadow dx="0" dy="22" stdDeviation="28" flood-color="#1E1C17" flood-opacity=".16"/>
    </filter>
    <pattern id="dots" width="22" height="22" patternUnits="userSpaceOnUse">
      <circle cx="2" cy="2" r="1" fill="#D7D5CE"/>
    </pattern>
    <mask id="rustHoles">
      <rect x="-60" y="-60" width="120" height="120" fill="white"/>
      <circle id="rustHole" cy="-40" r="3"/>
      <use xlink:href="#rustHole" transform="rotate(72)"/>
      <use xlink:href="#rustHole" transform="rotate(144)"/>
      <use xlink:href="#rustHole" transform="rotate(216)"/>
      <use xlink:href="#rustHole" transform="rotate(288)"/>
    </mask>
    <polygon id="rustCog" points="46,3 51,0 46,-3"/>
    <polygon id="rustMount" points="-7,-42 0,-35 7,-42"/>
  </defs>

  <rect width="1600" height="600" rx="30" fill="url(#bg)"/>
  <rect width="1600" height="600" rx="30" fill="url(#glow)"/>
  <circle cx="110" cy="610" r="220" fill="#FFFFFF" fill-opacity=".42"/>
  <circle cx="720" cy="650" r="210" fill="#FFF3CF" fill-opacity=".45"/>

  <g transform="translate(76 84)">
    <rect width="96" height="96" rx="26" fill="#F8F7F3" stroke="url(#amber)" stroke-width="5"/>
    <path d="M31 70L51 26" stroke="url(#amber)" stroke-width="8" stroke-linecap="round"/>
    <path d="M51 70L71 26" stroke="url(#amber)" stroke-width="8" stroke-linecap="round"/>
    <text x="124" y="76" fill="#181816" font-family="Inter, ui-sans-serif, system-ui, -apple-system, BlinkMacSystemFont, Segoe UI, sans-serif" font-size="82" font-weight="800" letter-spacing="-4">Nia</text>

    <text x="0" y="175" fill="#181816" font-family="Inter, ui-sans-serif, system-ui, -apple-system, BlinkMacSystemFont, Segoe UI, sans-serif" font-size="54" font-weight="790" letter-spacing="-2">The running UI</text>
    <text x="0" y="232" fill="#181816" font-family="Inter, ui-sans-serif, system-ui, -apple-system, BlinkMacSystemFont, Segoe UI, sans-serif" font-size="54" font-weight="790" letter-spacing="-2">is the canvas.</text>
    <text x="0" y="282" fill="#5F5B54" font-family="Inter, ui-sans-serif, system-ui, -apple-system, BlinkMacSystemFont, Segoe UI, sans-serif" font-size="27" font-weight="650">Prompt. Inspect. Edit. Ship.</text>
    <text x="0" y="324" fill="#77736B" font-family="Inter, ui-sans-serif, system-ui, -apple-system, BlinkMacSystemFont, Segoe UI, sans-serif" font-size="17" font-weight="500">A visual frontend workspace for humans and coding agents.</text>

    <g transform="translate(0 384)">
      <rect width="126" height="42" rx="21" fill="#F8F7F3" stroke="#D7D5CE"/>
      <circle cx="22" cy="21" r="15" fill="#C88900"/>
      <g transform="translate(22 21) scale(.24)" fill="#181816" stroke="#181816">
        <path transform="translate(.5,.5)" stroke-width="1" stroke-linejoin="round" d="M-9-15H4C12-15 12-7 4-7H-9ZM-40 22H0V11H-9V3H1C12 3 6 22 15 22H40V3H34V5C34 13 25 12 24 7C23 2 19-2 18-2C33-10 24-26 12-26H-35V-15H-25V11H-40Z"/>
        <g mask="url(#rustHoles)" stroke-width="3" stroke-linejoin="round">
          <circle r="43" fill="none" stroke="#181816" stroke-width="9"/>
          <use xlink:href="#rustCog"/>
          <use xlink:href="#rustCog" transform="rotate(11.25)"/><use xlink:href="#rustCog" transform="rotate(22.5)"/><use xlink:href="#rustCog" transform="rotate(33.75)"/><use xlink:href="#rustCog" transform="rotate(45)"/>
          <use xlink:href="#rustCog" transform="rotate(56.25)"/><use xlink:href="#rustCog" transform="rotate(67.5)"/><use xlink:href="#rustCog" transform="rotate(78.75)"/><use xlink:href="#rustCog" transform="rotate(90)"/>
          <use xlink:href="#rustCog" transform="rotate(101.25)"/><use xlink:href="#rustCog" transform="rotate(112.5)"/><use xlink:href="#rustCog" transform="rotate(123.75)"/><use xlink:href="#rustCog" transform="rotate(135)"/>
          <use xlink:href="#rustCog" transform="rotate(146.25)"/><use xlink:href="#rustCog" transform="rotate(157.5)"/><use xlink:href="#rustCog" transform="rotate(168.75)"/><use xlink:href="#rustCog" transform="rotate(180)"/>
          <use xlink:href="#rustCog" transform="rotate(191.25)"/><use xlink:href="#rustCog" transform="rotate(202.5)"/><use xlink:href="#rustCog" transform="rotate(213.75)"/><use xlink:href="#rustCog" transform="rotate(225)"/>
          <use xlink:href="#rustCog" transform="rotate(236.25)"/><use xlink:href="#rustCog" transform="rotate(247.5)"/><use xlink:href="#rustCog" transform="rotate(258.75)"/><use xlink:href="#rustCog" transform="rotate(270)"/>
          <use xlink:href="#rustCog" transform="rotate(281.25)"/><use xlink:href="#rustCog" transform="rotate(292.5)"/><use xlink:href="#rustCog" transform="rotate(303.75)"/><use xlink:href="#rustCog" transform="rotate(315)"/>
          <use xlink:href="#rustCog" transform="rotate(326.25)"/><use xlink:href="#rustCog" transform="rotate(337.5)"/><use xlink:href="#rustCog" transform="rotate(348.75)"/>
          <use xlink:href="#rustMount" stroke-width="6"/><use xlink:href="#rustMount" transform="rotate(72)" stroke-width="6"/><use xlink:href="#rustMount" transform="rotate(144)" stroke-width="6"/>
          <use xlink:href="#rustMount" transform="rotate(216)" stroke-width="6"/><use xlink:href="#rustMount" transform="rotate(288)" stroke-width="6"/>
        </g>
      </g>
      <text x="45" y="26" fill="#4D4942" font-family="Inter, ui-sans-serif, system-ui, sans-serif" font-size="13" font-weight="650">Rust core</text>

      <rect x="138" width="124" height="42" rx="21" fill="#F8F7F3" stroke="#D7D5CE"/>
      <g transform="translate(151 9) scale(.105)" fill="#181816">
        <path d="M152.8 82.7a21.6 21.6 0 1 1-43.3 0 21.6 21.6 0 0 1 43.3 0Zm-36.3 60.6a21.6 21.6 0 1 1-43.2 0 21.6 21.6 0 0 1 43.2 0Z"/>
        <path d="M78.4 63.3a81.8 81.8 0 1 0 94.7 104.3 95 95 0 0 1-31.4 9.2A57.6 57.6 0 1 1 75 89.3a59 59 0 0 1 3.4-26Z"/>
        <path fill-rule="evenodd" clip-rule="evenodd" d="M147.6 162.7A81.8 81.8 0 1 0 52.9 58.4a95 95 0 0 1 31.4-9.2 57.6 57.6 0 1 1 66.7 87.5 59 59 0 0 1-3.4 26Z"/>
      </g>
      <text x="181" y="26" fill="#4D4942" font-family="Inter, ui-sans-serif, system-ui, sans-serif" font-size="13" font-weight="650">Tauri 3</text>

      <rect x="274" width="114" height="42" rx="21" fill="#F8F7F3" stroke="#D7D5CE"/>
      <g transform="translate(286 9) scale(.045)" fill="#58C4DC">
        <path d="M285.5 201C255.4 201 231 225.4 231 255.5S255.4 310 285.5 310 340 285.6 340 255.5 315.6 201 285.5 201Z"/>
        <path d="M568.96 255.99c0-42.79-39.62-80.31-102.71-105.01.84-5.56 1.61-11.06 2.15-16.46 6.22-61.48-8.59-105.85-41.69-124.97-37.03-21.38-89.34-5.86-142.23 36.46C231.59 3.69 179.28-11.83 142.25 9.55c-33.1 19.12-47.91 63.49-41.69 124.97.54 5.4 1.28 10.92 2.15 16.5C39.62 175.72 0 213.21 0 255.99s39.62 80.31 102.71 105.01c-.86 5.56-1.61 11.06-2.15 16.46-6.22 61.48 8.59 105.85 41.69 124.97 37.03 21.38 89.34 5.86 142.23-36.46 52.89 42.32 105.2 57.84 142.23 36.46 33.1-19.12 47.91-63.49 41.69-124.97-.54-5.4-1.28-10.9-2.11-16.46 63.09-24.66 102.67-62.25 102.67-105.01Zm-190.68 54.21a453.42 453.42 0 0 1-33.04 51.2c-20.19 2.08-40.48 3.11-60.78 3.1-20.29.01-40.57-1.02-60.76-3.1a450.53 450.53 0 0 1-33.02-51.2 453.65 453.65 0 0 1-27.64-54.21 453.65 453.65 0 0 1 27.64-54.21 450.71 450.71 0 0 1 32.92-51.02 584.5 584.5 0 0 1 60.88-3.17c20.29-.01 40.57 1.02 60.76 3.09a451.87 451.87 0 0 1 33.04 51.1 454.6 454.6 0 0 1 27.64 54.21 454.58 454.58 0 0 1-27.68 54.21Z"/>
      </g>
      <text x="322" y="26" fill="#4D4942" font-family="Inter, ui-sans-serif, system-ui, sans-serif" font-size="13" font-weight="650">React</text>

      <rect x="400" width="146" height="42" rx="21" fill="#F8F7F3" stroke="#D7D5CE"/>
      <circle cx="421" cy="21" r="13" fill="#4D4942"/>
      <circle cx="421" cy="21" r="6" fill="#F8F7F3"/>
      <path d="M421 8A13 13 0 0 1 433 16H421Z" fill="#77736B"/>
      <text x="443" y="26" fill="#4D4942" font-family="Inter, ui-sans-serif, system-ui, sans-serif" font-size="13" font-weight="650">CEF / Chromium</text>
    </g>
  </g>

  <g filter="url(#shadow)">
    <rect x="630" y="42" width="908" height="516" rx="28" fill="#F8F7F3" stroke="#D7D5CE"/>
    <rect x="646" y="58" width="876" height="484" rx="20" fill="#FFFFFF" stroke="#E5E3DD"/>

    <rect x="646" y="58" width="876" height="50" rx="20" fill="#FAF9F6"/>
    <rect x="646" y="90" width="876" height="18" fill="#FAF9F6"/>
    <circle cx="670" cy="83" r="5" fill="#F06A5C"/>
    <circle cx="688" cy="83" r="5" fill="#E9B949"/>
    <circle cx="706" cy="83" r="5" fill="#58B76A"/>
    <text x="734" y="87" fill="#181816" font-family="Inter, ui-sans-serif, system-ui, sans-serif" font-size="12" font-weight="760">Nia</text>
    <line x1="770" y1="72" x2="770" y2="94" stroke="#D7D5CE"/>
    <text x="786" y="87" fill="#77736B" font-family="Inter, ui-sans-serif, system-ui, sans-serif" font-size="10">feat/project-session</text>

    <rect x="1110" y="69" width="262" height="28" rx="9" fill="#F2F1EC" stroke="#D7D5CE"/>
    <rect x="1115" y="73" width="78" height="20" rx="7" fill="#FFFFFF" stroke="#E5E3DD"/>
    <text x="1154" y="87" text-anchor="middle" fill="#181816" font-family="Inter, ui-sans-serif, system-ui, sans-serif" font-size="9" font-weight="700">Canvas</text>
    <text x="1240" y="87" text-anchor="middle" fill="#77736B" font-family="Inter, ui-sans-serif, system-ui, sans-serif" font-size="9">Code</text>
    <text x="1325" y="87" text-anchor="middle" fill="#77736B" font-family="Inter, ui-sans-serif, system-ui, sans-serif" font-size="9">Split</text>
    <rect x="1405" y="69" width="92" height="28" rx="9" fill="#C88900"/>
    <path d="M1424 77L1436 83L1424 89Z" fill="#FFF"/>
    <text x="1460" y="87" text-anchor="middle" fill="#FFFFFF" font-family="Inter, ui-sans-serif, system-ui, sans-serif" font-size="9" font-weight="760">Run</text>

    <rect x="658" y="120" width="44" height="410" rx="12" fill="#F2F1EC" stroke="#E5E3DD"/>
    <rect x="665" y="133" width="30" height="30" rx="8" fill="#FFF3CF" stroke="#E5D39C"/>
    <circle cx="680" cy="148" r="7" stroke="#A86F00" stroke-width="2"/>
    <path d="M685 153L690 158" stroke="#A86F00" stroke-width="2" stroke-linecap="round"/>
    <rect x="671" y="186" width="18" height="14" rx="2" stroke="#77736B" stroke-width="1.7"/>
    <path d="M671 190H689" stroke="#77736B" stroke-width="1.5"/>
    <path d="M672 235L680 231L688 235L680 239Z" stroke="#77736B" stroke-width="1.5"/>
    <path d="M672 240L680 244L688 240" stroke="#77736B" stroke-width="1.5"/>
    <circle cx="680" cy="290" r="8" stroke="#77736B" stroke-width="1.7"/>
    <path d="M680 278V282M680 298V302M668 290H672M688 290H692" stroke="#77736B" stroke-width="1.5"/>
    <text x="680" y="512" text-anchor="middle" fill="#77736B" font-family="Inter, ui-sans-serif, system-ui, sans-serif" font-size="10" font-weight="700">S</text>

    <rect x="712" y="120" width="238" height="410" fill="#F8F7F3" stroke="#E5E3DD"/>
    <text x="728" y="145" fill="#181816" font-family="Inter, ui-sans-serif, system-ui, sans-serif" font-size="11" font-weight="760">Nia Agent</text>
    <rect x="728" y="162" width="206" height="92" rx="10" fill="#FFF8E8" stroke="#E5D39C"/>
    <text x="742" y="182" fill="#A86F00" font-family="Inter, ui-sans-serif, system-ui, sans-serif" font-size="8" font-weight="760" letter-spacing="1.2">VISION CONTEXT</text>
    <text x="742" y="202" fill="#4D4942" font-family="Inter, ui-sans-serif, system-ui, sans-serif" font-size="9">Keep the interface warm, restrained,</text>
    <text x="742" y="216" fill="#4D4942" font-family="Inter, ui-sans-serif, system-ui, sans-serif" font-size="9">and dense. Amber is the only accent.</text>
    <text x="742" y="236" fill="#77736B" font-family="Inter, ui-sans-serif, system-ui, sans-serif" font-size="8">Project vision · 3 refs</text>

    <rect x="728" y="270" width="206" height="54" rx="10" fill="#F2F1EC"/>
    <text x="742" y="291" fill="#4D4942" font-family="Inter, ui-sans-serif, system-ui, sans-serif" font-size="9">Make the selected hero feel more focused.</text>
    <text x="728" y="353" fill="#A86F00" font-family="Inter, ui-sans-serif, system-ui, sans-serif" font-size="9" font-weight="760">Nia</text>
    <text x="728" y="370" fill="#5F5B54" font-family="Inter, ui-sans-serif, system-ui, sans-serif" font-size="9">Editing the current selection while keeping</text>
    <text x="728" y="384" fill="#5F5B54" font-family="Inter, ui-sans-serif, system-ui, sans-serif" font-size="9">the source, canvas, and inspector in sync.</text>
    <rect x="728" y="455" width="206" height="58" rx="10" fill="#FFFFFF" stroke="#D7D5CE"/>
    <text x="741" y="480" fill="#9A958B" font-family="Inter, ui-sans-serif, system-ui, sans-serif" font-size="9">Ask Nia...</text>
    <circle cx="913" cy="484" r="12" fill="#C88900"/>
    <path d="M908 486L913 481L918 486" stroke="#FFF" stroke-width="1.6" stroke-linecap="round" stroke-linejoin="round"/>

    <rect x="960" y="120" width="390" height="410" fill="#ECEBE6"/>
    <rect x="972" y="132" width="366" height="34" rx="8" fill="#F8F7F3" stroke="#D7D5CE"/>
    <rect x="978" y="138" width="54" height="22" rx="6" fill="#FFFFFF" stroke="#D7D5CE"/>
    <text x="1005" y="152" text-anchor="middle" fill="#181816" font-family="Inter, ui-sans-serif, system-ui, sans-serif" font-size="8" font-weight="760">Inspect</text>
    <text x="1054" y="152" fill="#77736B" font-family="Inter, ui-sans-serif, system-ui, sans-serif" font-size="8">Interact</text>
    <text x="1320" y="152" text-anchor="end" fill="#77736B" font-family="Inter, ui-sans-serif, system-ui, sans-serif" font-size="8">100%</text>

    <rect x="972" y="178" width="366" height="278" rx="10" fill="#FFFFFF" stroke="#C9C6BD"/>
    <rect x="972" y="178" width="366" height="32" rx="10" fill="#F2F1EC"/>
    <rect x="972" y="198" width="366" height="12" fill="#F2F1EC"/>
    <circle cx="988" cy="194" r="3" fill="#9A958B"/>
    <circle cx="998" cy="194" r="3" fill="#9A958B"/>
    <circle cx="1008" cy="194" r="3" fill="#9A958B"/>
    <rect x="1060" y="184" width="190" height="20" rx="6" fill="#FFFFFF" stroke="#D7D5CE"/>
    <text x="1155" y="197" text-anchor="middle" fill="#77736B" font-family="ui-monospace, SFMono-Regular, Menlo, monospace" font-size="7">localhost:5173</text>
    <rect x="985" y="222" width="340" height="220" rx="8" fill="url(#canvasBg)"/>
    <rect x="985" y="222" width="340" height="220" rx="8" fill="url(#dots)" fill-opacity=".25"/>

    <rect x="1004" y="245" width="182" height="150" rx="10" fill="#FFFFFF" stroke="#C88900" stroke-width="2"/>
    <rect x="999" y="240" width="10" height="10" fill="#C88900"/>
    <rect x="1181" y="240" width="10" height="10" fill="#C88900"/>
    <rect x="999" y="390" width="10" height="10" fill="#C88900"/>
    <rect x="1181" y="390" width="10" height="10" fill="#C88900"/>
    <text x="1020" y="280" fill="#181816" font-family="Inter, ui-sans-serif, system-ui, sans-serif" font-size="25" font-weight="800">Ideas to</text>
    <text x="1020" y="309" fill="#181816" font-family="Inter, ui-sans-serif, system-ui, sans-serif" font-size="25" font-weight="800">interfaces.</text>
    <text x="1020" y="334" fill="#5F5B54" font-family="Inter, ui-sans-serif, system-ui, sans-serif" font-size="9">Turn intent into working UI directly</text>
    <text x="1020" y="348" fill="#5F5B54" font-family="Inter, ui-sans-serif, system-ui, sans-serif" font-size="9">inside the running browser canvas.</text>
    <rect x="1020" y="362" width="82" height="24" rx="7" fill="#181816"/>
    <text x="1061" y="377" text-anchor="middle" fill="#FFFFFF" font-family="Inter, ui-sans-serif, system-ui, sans-serif" font-size="8" font-weight="700">Get started</text>
    <rect x="1200" y="245" width="104" height="150" rx="10" fill="#F2F1EC"/>
    <circle cx="1274" cy="276" r="11" fill="#E4C98E"/>
    <path d="M1218 376L1245 324L1265 351L1281 331L1300 376H1218Z" fill="#D1CEC5"/>
    <rect x="1004" y="408" width="128" height="16" rx="5" fill="#F2F1EC"/>
    <rect x="1142" y="408" width="82" height="16" rx="5" fill="#F2F1EC"/>
    <rect x="1234" y="408" width="70" height="16" rx="5" fill="#F2F1EC"/>

    <rect x="972" y="468" width="366" height="46" rx="8" fill="#F8F7F3" stroke="#D7D5CE"/>
    <text x="984" y="486" fill="#77736B" font-family="ui-monospace, SFMono-Regular, Menlo, monospace" font-size="7">project › nia</text>
    <text x="984" y="501" fill="#77736B" font-family="ui-monospace, SFMono-Regular, Menlo, monospace" font-size="7">nia › Rust core online · canvas live</text>

    <rect x="1360" y="120" width="150" height="410" fill="#F8F7F3" stroke="#E5E3DD"/>
    <text x="1375" y="145" fill="#181816" font-family="Inter, ui-sans-serif, system-ui, sans-serif" font-size="10" font-weight="760">Inspect</text>
    <text x="1417" y="145" fill="#77736B" font-family="Inter, ui-sans-serif, system-ui, sans-serif" font-size="8">DOM</text>
    <text x="1448" y="145" fill="#77736B" font-family="Inter, ui-sans-serif, system-ui, sans-serif" font-size="8">Page</text>
    <text x="1375" y="177" fill="#A86F00" font-family="Inter, ui-sans-serif, system-ui, sans-serif" font-size="7.5" font-weight="800" letter-spacing="1">SELECTED</text>
    <text x="1375" y="196" fill="#181816" font-family="ui-monospace, SFMono-Regular, Menlo, monospace" font-size="9">section.hero</text>

    <rect x="1375" y="214" width="120" height="62" rx="8" fill="#FFFFFF" stroke="#D7D5CE"/>
    <text x="1385" y="232" fill="#4D4942" font-family="Inter, ui-sans-serif, system-ui, sans-serif" font-size="8" font-weight="700">Source</text>
    <text x="1385" y="249" fill="#77736B" font-family="ui-monospace, SFMono-Regular, Menlo, monospace" font-size="7">Hero.tsx:42:5</text>
    <text x="1385" y="262" fill="#77736B" font-family="ui-monospace, SFMono-Regular, Menlo, monospace" font-size="7">.hero · styles.css</text>

    <rect x="1375" y="288" width="120" height="156" rx="8" fill="#FFFFFF" stroke="#D7D5CE"/>
    <text x="1385" y="307" fill="#4D4942" font-family="Inter, ui-sans-serif, system-ui, sans-serif" font-size="8" font-weight="700">Properties</text>
    <text x="1385" y="333" fill="#77736B" font-family="Inter, ui-sans-serif, system-ui, sans-serif" font-size="7.5">Font size</text>
    <rect x="1442" y="320" width="43" height="19" rx="5" fill="#F2F1EC"/>
    <text x="1463.5" y="333" text-anchor="middle" fill="#4D4942" font-family="ui-monospace, SFMono-Regular, Menlo, monospace" font-size="7">32 px</text>
    <text x="1385" y="365" fill="#77736B" font-family="Inter, ui-sans-serif, system-ui, sans-serif" font-size="7.5">Gap</text>
    <rect x="1442" y="352" width="43" height="19" rx="5" fill="#F2F1EC"/>
    <text x="1463.5" y="365" text-anchor="middle" fill="#4D4942" font-family="ui-monospace, SFMono-Regular, Menlo, monospace" font-size="7">16 px</text>
    <text x="1385" y="397" fill="#77736B" font-family="Inter, ui-sans-serif, system-ui, sans-serif" font-size="7.5">Radius</text>
    <rect x="1442" y="384" width="43" height="19" rx="5" fill="#F2F1EC"/>
    <text x="1463.5" y="397" text-anchor="middle" fill="#4D4942" font-family="ui-monospace, SFMono-Regular, Menlo, monospace" font-size="7">12 px</text>
    <text x="1385" y="429" fill="#77736B" font-family="Inter, ui-sans-serif, system-ui, sans-serif" font-size="7.5">Color</text>
    <circle cx="1448" cy="426" r="6" fill="#C88900"/>
    <text x="1458" y="429" fill="#4D4942" font-family="ui-monospace, SFMono-Regular, Menlo, monospace" font-size="6.5">#C88900</text>

    <rect x="1375" y="460" width="120" height="28" rx="8" fill="#F2F1EC"/>
    <circle cx="1388" cy="474" r="4" fill="#58B76A"/>
    <text x="1399" y="477" fill="#77736B" font-family="Inter, ui-sans-serif, system-ui, sans-serif" font-size="7.5">source linked</text>
  </g>
</svg>